<svg width="19" height="16" viewBox="0 0 19 16" fill="none" xmlns="http://www.w3.org/2000/svg">
<path fill-rule="evenodd" clip-rule="evenodd" d="M3.39898 1.94006C2.81356 1.94006 2.33898 2.41464 2.33898 3.00006V13.0001C2.33898 13.5855 2.81356 14.0601 3.39898 14.0601H4.45898V1.94006H3.39898ZM6.33898 1.94006V14.0601H15.399C15.9844 14.0601 16.459 13.5855 16.459 13.0001V3.00006C16.459 2.41464 15.9844 1.94006 15.399 1.94006H6.33898ZM0.458984 3.00006C0.458984 1.37634 1.77527 0.0600586 3.39898 0.0600586H15.399C17.0227 0.0600586 18.339 1.37634 18.339 3.00006V13.0001C18.339 14.6238 17.0227 15.9401 15.399 15.9401H3.39898C1.77527 15.9401 0.458984 14.6238 0.458984 13.0001V3.00006ZM7.72943 6.81824C7.72943 5.19452 9.04572 3.87824 10.6694 3.87824H12.199C13.8227 3.87824 15.139 5.19452 15.139 6.81824V8.50006C15.139 10.1238 13.8227 11.4401 12.199 11.4401H10.6694C9.04572 11.4401 7.72943 10.1238 7.72943 8.50006V6.81824ZM10.6694 5.75824C10.084 5.75824 9.60943 6.23282 9.60943 6.81824V8.50006C9.60943 9.08548 10.084 9.56006 10.6694 9.56006H12.199C12.7844 9.56006 13.259 9.08548 13.259 8.50006V6.81824C13.259 6.23282 12.7844 5.75824 12.199 5.75824H10.6694Z" fill="#C4CDCC"/>
</svg>
