<svg width="14" height="15" viewBox="0 0 14 15" fill="none" xmlns="http://www.w3.org/2000/svg">
<path d="M0.768079 6.21666C2.36796 9.70067 5.21073 12.462 8.73975 13.96L9.30641 14.2125C9.93394 14.4919 10.6399 14.5409 11.3 14.3508C11.9601 14.1607 12.532 13.7437 12.9147 13.1733L13.6556 12.07C13.7715 11.897 13.8184 11.6868 13.7871 11.4809C13.7558 11.275 13.6485 11.0882 13.4864 10.9575L10.9764 8.9325C10.889 8.86202 10.7882 8.80994 10.6802 8.77938C10.5722 8.74881 10.459 8.7404 10.3477 8.75464C10.2363 8.76889 10.1289 8.80549 10.0321 8.86226C9.93518 8.91903 9.85078 8.99479 9.78391 9.085L9.00725 10.1325C7.01359 9.14786 5.39985 7.53384 4.41558 5.54L5.46225 4.76333C5.55245 4.69646 5.62821 4.61206 5.68498 4.51518C5.74175 4.4183 5.77835 4.31095 5.7926 4.19957C5.80684 4.0882 5.79843 3.97509 5.76787 3.86704C5.7373 3.759 5.68522 3.65824 5.61475 3.57083L3.58975 1.06083C3.45899 0.898708 3.27227 0.791424 3.06636 0.760114C2.86045 0.728803 2.65028 0.775734 2.47725 0.891663L1.36641 1.63666C0.792579 2.02148 0.373987 2.59751 0.185206 3.26213C-0.00357573 3.92676 0.0497131 4.63682 0.335579 5.26583L0.768079 6.21666Z" fill="#C4CDCC"/>
</svg>
