<svg width="12" height="10" viewBox="0 0 12 10" fill="none" xmlns="http://www.w3.org/2000/svg">
<path fill-rule="evenodd" clip-rule="evenodd" d="M2.27214 0.477507C2.16551 0.378147 2.02448 0.324055 1.87875 0.326626C1.73303 0.329197 1.59399 0.388231 1.49093 0.491291C1.38787 0.59435 1.32883 0.733389 1.32626 0.879115C1.32369 1.02484 1.37778 1.16588 1.47714 1.27251L2.09964 1.89501C1.35589 2.50395 0.765108 3.27864 0.374643 4.15701L0.179643 4.59576C0.123012 4.72313 0.09375 4.86098 0.09375 5.00038C0.09375 5.13978 0.123012 5.27763 0.179643 5.40501L0.374643 5.84376C0.720173 6.62108 1.22306 7.31835 1.85156 7.89159C2.48007 8.46483 3.22056 8.90158 4.02632 9.1743C4.83208 9.44702 5.68561 9.54979 6.53307 9.47611C7.38054 9.40244 8.20354 9.15393 8.95014 8.74626L9.72714 9.52251C9.77864 9.57777 9.84074 9.6221 9.90974 9.65284C9.97874 9.68359 10.0532 9.70012 10.1288 9.70145C10.2043 9.70278 10.2793 9.68889 10.3493 9.6606C10.4194 9.63231 10.483 9.5902 10.5364 9.53679C10.5898 9.48337 10.6319 9.41975 10.6602 9.3497C10.6885 9.27966 10.7024 9.20464 10.7011 9.12912C10.6998 9.05359 10.6832 8.9791 10.6525 8.9101C10.6217 8.8411 10.5774 8.779 10.5221 8.72751L2.27214 0.477507ZM8.11314 7.90851L7.14264 6.93876C6.71287 7.19273 6.21083 7.29657 5.71557 7.23392C5.22031 7.17127 4.75995 6.94569 4.40695 6.5927C4.05396 6.2397 3.82838 5.77934 3.76573 5.28408C3.70308 4.78882 3.80692 4.28678 4.06089 3.85701L2.89914 2.69526C2.25055 3.20281 1.7365 3.86186 1.40214 4.61451L1.23039 5.00001L1.40289 5.38626C1.67386 5.99584 2.06335 6.54545 2.54871 7.00311C3.03407 7.46076 3.60559 7.81732 4.23004 8.05204C4.85448 8.28675 5.51936 8.39494 6.18601 8.3703C6.85265 8.34566 7.50773 8.18868 8.11314 7.90851ZM4.91214 4.70826C4.86109 4.89919 4.86117 5.10019 4.91238 5.29109C4.96358 5.48198 5.06411 5.65604 5.20386 5.79579C5.34361 5.93554 5.51767 6.03607 5.70856 6.08727C5.89946 6.13848 6.10046 6.13856 6.29139 6.08751L4.91214 4.70826ZM6.15564 2.75526L8.24364 4.84326C8.20589 4.30194 7.97378 3.79251 7.59009 3.40881C7.20639 3.02512 6.69696 2.79301 6.15564 2.75526ZM10.5956 5.38626C10.417 5.78869 10.1863 6.16592 9.90939 6.50826L10.7081 7.30776C11.081 6.86528 11.3895 6.37243 11.6246 5.84376L11.8196 5.40501C11.8764 5.27753 11.9057 5.13954 11.9057 5.00001C11.9057 4.86047 11.8764 4.72249 11.8196 4.59501L11.6246 4.15701C11.0124 2.7799 9.91617 1.67525 8.54381 1.05238C7.17146 0.429512 5.61829 0.33171 4.17864 0.777507L5.10714 1.70751C6.21566 1.50765 7.35918 1.68556 8.35457 2.21277C9.34997 2.73997 10.1396 3.58596 10.5971 4.61526L10.7681 5.00076L10.5971 5.38701L10.5956 5.38626Z" fill="#262626"/>
</svg>
