<svg width="18" height="18" viewBox="0 0 18 18" fill="none" xmlns="http://www.w3.org/2000/svg">
<path fill-rule="evenodd" clip-rule="evenodd" d="M2.10964 10.15C2.16393 10.15 2.21726 10.1358 2.26432 10.1087L4.62795 8.74376H9.14062C10.0851 8.74376 10.8562 7.97255 10.8562 7.02814V4.21564C10.8562 3.27122 10.0851 2.50001 9.14062 2.50001H3.51562C2.5712 2.50001 1.8 3.27122 1.8 4.21564V9.84064C1.8 10.0096 1.94064 10.15 2.10964 10.15ZM3.16325 11.6682C2.84274 11.8529 2.4793 11.9501 2.10938 11.95C0.946266 11.95 0 11.0037 0 9.84064V4.21564C0 2.27712 1.57707 0.700012 3.51562 0.700012H9.14062C11.0792 0.700012 12.6562 2.27712 12.6562 4.21564V7.02814C12.6562 8.96665 11.0792 10.5438 9.14062 10.5438H5.11035L3.16325 11.6682Z" fill="#C4CDCC"/>
<path d="M15.7319 15.4487C15.779 15.4758 15.8323 15.49 15.8866 15.49C16.0556 15.49 16.1962 15.3496 16.1962 15.1806V9.55564C16.1962 8.61122 15.425 7.84001 14.4806 7.84001C13.9835 7.84001 13.5806 7.43707 13.5806 6.94001C13.5806 6.44296 13.9835 6.04001 14.4806 6.04001C16.4191 6.04001 17.9962 7.61712 17.9962 9.55564V15.1806C17.9962 16.3437 17.0499 17.29 15.8868 17.29C15.5169 17.2901 15.1535 17.1929 14.833 17.0082L12.8859 15.8838H8.85559C6.91704 15.8838 5.33997 14.3067 5.33997 12.3681C5.33997 11.8711 5.74291 11.4681 6.23997 11.4681C6.73702 11.4681 7.13997 11.8711 7.13997 12.3681C7.13997 13.3126 7.91116 14.0838 8.85559 14.0838H13.3683L15.7319 15.4487Z" fill="#C4CDCC"/>
<path d="M4.41563 6.50001C3.91857 6.50001 3.51562 6.09707 3.51562 5.60001C3.51562 5.10296 3.91857 4.70001 4.41563 4.70001H8.24062C8.73768 4.70001 9.14062 5.10296 9.14062 5.60001C9.14062 6.09707 8.73768 6.50001 8.24062 6.50001H4.41563Z" fill="#C4CDCC"/>
</svg>
