<svg width="20" height="20" viewBox="0 0 20 20" fill="none" xmlns="http://www.w3.org/2000/svg">
<path fill-rule="evenodd" clip-rule="evenodd" d="M18.4367 9.99999C18.4367 10.2486 18.3379 10.4871 18.1621 10.6629C17.9863 10.8387 17.7478 10.9375 17.4992 10.9375H4.76168L8.16168 14.3375C8.25378 14.4233 8.32766 14.5268 8.3789 14.6418C8.43014 14.7568 8.45769 14.881 8.45992 15.0068C8.46214 15.1327 8.43898 15.2578 8.39183 15.3745C8.34468 15.4912 8.2745 15.5973 8.18547 15.6863C8.09645 15.7753 7.99041 15.8455 7.87367 15.8926C7.75694 15.9398 7.6319 15.963 7.50602 15.9607C7.38014 15.9585 7.256 15.931 7.141 15.8797C7.026 15.8285 6.9225 15.7546 6.83668 15.6625L1.83668 10.6625C1.66111 10.4867 1.5625 10.2484 1.5625 9.99999C1.5625 9.75155 1.66111 9.51327 1.83668 9.33749L6.83668 4.33749C7.01439 4.17189 7.24945 4.08174 7.49233 4.08602C7.73521 4.09031 7.96694 4.1887 8.1387 4.36046C8.31047 4.53223 8.40886 4.76396 8.41314 5.00684C8.41743 5.24971 8.32728 5.48477 8.16168 5.66249L4.76168 9.06249H17.4992C17.7478 9.06249 17.9863 9.16126 18.1621 9.33708C18.3379 9.51289 18.4367 9.75135 18.4367 9.99999Z" fill="#FAFAFA"/>
</svg>
