<svg width="20" height="20" viewBox="0 0 20 20" fill="none" xmlns="http://www.w3.org/2000/svg">
<path fill-rule="evenodd" clip-rule="evenodd" d="M18.475 9.3375C18.6506 9.51328 18.7492 9.75156 18.7492 10C18.7492 10.2484 18.6506 10.4867 18.475 10.6625L15.35 13.7875C15.2642 13.8796 15.1607 13.9535 15.0457 14.0047C14.9307 14.056 14.8065 14.0835 14.6807 14.0857C14.5548 14.088 14.4297 14.0648 14.313 14.0177C14.1963 13.9705 14.0902 13.9003 14.0012 13.8113C13.9122 13.7223 13.842 13.6162 13.7948 13.4995C13.7477 13.3828 13.7245 13.2577 13.7268 13.1318C13.729 13.006 13.7565 12.8818 13.8078 12.7668C13.859 12.6518 13.9329 12.5483 14.025 12.4625L15.55 10.9375H5.9375C5.68886 10.9375 5.4504 10.8387 5.27459 10.6629C5.09877 10.4871 5 10.2486 5 10C5 9.75136 5.09877 9.5129 5.27459 9.33709C5.4504 9.16127 5.68886 9.0625 5.9375 9.0625H15.55L14.025 7.5375C13.8594 7.35978 13.7692 7.12472 13.7735 6.88185C13.7778 6.63897 13.8762 6.40724 14.048 6.23547C14.2197 6.06371 14.4515 5.96532 14.6943 5.96103C14.9372 5.95675 15.1723 6.0469 15.35 6.2125L18.475 9.3375ZM11.875 5.3125C11.875 5.56114 11.7762 5.7996 11.6004 5.97541C11.4246 6.15123 11.1861 6.25 10.9375 6.25C10.6889 6.25 10.4504 6.15123 10.2746 5.97541C10.0988 5.7996 10 5.56114 10 5.3125V5C10 4.50272 9.80246 4.02581 9.45083 3.67417C9.0992 3.32254 8.62228 3.125 8.125 3.125H5C4.50272 3.125 4.02581 3.32254 3.67418 3.67417C3.32254 4.02581 3.125 4.50272 3.125 5V15C3.125 15.4973 3.32254 15.9742 3.67418 16.3258C4.02581 16.6775 4.50272 16.875 5 16.875H8.125C8.62228 16.875 9.0992 16.6775 9.45083 16.3258C9.80246 15.9742 10 15.4973 10 15V14.6875C10 14.4389 10.0988 14.2004 10.2746 14.0246C10.4504 13.8488 10.6889 13.75 10.9375 13.75C11.1861 13.75 11.4246 13.8488 11.6004 14.0246C11.7762 14.2004 11.875 14.4389 11.875 14.6875V15C11.875 15.9946 11.4799 16.9484 10.7767 17.6517C10.0734 18.3549 9.11956 18.75 8.125 18.75H5C4.00544 18.75 3.05161 18.3549 2.34835 17.6517C1.64509 16.9484 1.25 15.9946 1.25 15V5C1.25 4.00544 1.64509 3.05161 2.34835 2.34835C3.05161 1.64509 4.00544 1.25 5 1.25H8.125C9.11956 1.25 10.0734 1.64509 10.7767 2.34835C11.4799 3.05161 11.875 4.00544 11.875 5V5.3125Z" fill="#FAFAFA"/>
</svg>
