<svg width="24" height="24" viewBox="0 0 24 24" fill="none" xmlns="http://www.w3.org/2000/svg">
<path d="M12.0008 8.75C11.1388 8.75 10.3122 9.09241 9.7027 9.70191C9.09321 10.3114 8.7508 11.1381 8.7508 12C8.7508 12.862 9.09321 13.6886 9.7027 14.2981C10.3122 14.9076 11.1388 15.25 12.0008 15.25C12.8628 15.25 13.6894 14.9076 14.2989 14.2981C14.9084 13.6886 15.2508 12.862 15.2508 12C15.2508 11.1381 14.9084 10.3114 14.2989 9.70191C13.6894 9.09241 12.8628 8.75 12.0008 8.75Z" fill="url(#paint0_linear_370_4824)"/>
<path fill-rule="evenodd" clip-rule="evenodd" d="M6.7708 3.082C10.2468 2.6967 13.7548 2.6967 17.2308 3.082C19.1298 3.294 20.6608 4.789 20.8838 6.695C21.296 10.2197 21.296 13.7803 20.8838 17.305C20.6608 19.211 19.1298 20.706 17.2318 20.919C13.7554 21.3044 10.2471 21.3044 6.7708 20.919C4.8718 20.706 3.3408 19.211 3.1178 17.306C2.70553 13.781 2.70553 10.22 3.1178 6.695C3.3408 4.789 4.8718 3.294 6.7708 3.082ZM17.0008 6C16.7356 6 16.4812 6.10536 16.2937 6.2929C16.1062 6.48043 16.0008 6.73479 16.0008 7C16.0008 7.26522 16.1062 7.51957 16.2937 7.70711C16.4812 7.89465 16.7356 8 17.0008 8C17.266 8 17.5204 7.89465 17.7079 7.70711C17.8954 7.51957 18.0008 7.26522 18.0008 7C18.0008 6.73479 17.8954 6.48043 17.7079 6.2929C17.5204 6.10536 17.266 6 17.0008 6ZM7.2508 12C7.2508 10.7402 7.75124 9.53204 8.64204 8.64125C9.53284 7.75045 10.741 7.25 12.0008 7.25C13.2606 7.25 14.4688 7.75045 15.3596 8.64125C16.2504 9.53204 16.7508 10.7402 16.7508 12C16.7508 13.2598 16.2504 14.468 15.3596 15.3588C14.4688 16.2496 13.2606 16.75 12.0008 16.75C10.741 16.75 9.53284 16.2496 8.64204 15.3588C7.75124 14.468 7.2508 13.2598 7.2508 12Z" fill="url(#paint1_linear_370_4824)"/>
<defs>
<linearGradient id="paint0_linear_370_4824" x1="4.04295" y1="20.0083" x2="21.1016" y2="5.26593" gradientUnits="userSpaceOnUse">
<stop stop-color="#FFDD55"/>
<stop offset="0.5" stop-color="#FF543E"/>
<stop offset="1" stop-color="#C837AB"/>
</linearGradient>
<linearGradient id="paint1_linear_370_4824" x1="4.04295" y1="20.0083" x2="21.1016" y2="5.26593" gradientUnits="userSpaceOnUse">
<stop stop-color="#FFDD55"/>
<stop offset="0.5" stop-color="#FF543E"/>
<stop offset="1" stop-color="#C837AB"/>
</linearGradient>
</defs>
</svg>
