<svg width="24" height="24" viewBox="0 0 24 24" fill="none" xmlns="http://www.w3.org/2000/svg">
<path d="M5.0006 9.85999C6.92045 14.0408 10.3318 17.3544 14.5666 19.152L15.2466 19.455C15.9996 19.7903 16.8468 19.8491 17.639 19.621C18.4311 19.3928 19.1173 18.8925 19.5766 18.208L20.4656 16.884C20.6047 16.6764 20.661 16.4241 20.6235 16.1771C20.5859 15.93 20.4571 15.7059 20.2626 15.549L17.2506 13.119C17.1457 13.0344 17.0248 12.9719 16.8951 12.9352C16.7655 12.8986 16.6298 12.8885 16.4961 12.9056C16.3625 12.9227 16.2336 12.9666 16.1174 13.0347C16.0011 13.1028 15.8998 13.1937 15.8196 13.302L14.8876 14.559C12.4952 13.3774 10.5587 11.4406 9.3776 9.04799L10.6336 8.11599C10.7418 8.03575 10.8328 7.93447 10.9009 7.81821C10.969 7.70196 11.0129 7.57314 11.03 7.43949C11.0471 7.30583 11.037 7.1701 11.0003 7.04045C10.9637 6.91079 10.9012 6.78989 10.8166 6.68499L8.3866 3.67299C8.2297 3.47845 8.00563 3.34971 7.75854 3.31213C7.51145 3.27456 7.25924 3.33088 7.0516 3.46999L5.7186 4.36399C5.03 4.82577 4.52769 5.51701 4.30115 6.31456C4.07462 7.11211 4.13856 7.96419 4.4816 8.71899L5.0006 9.85999Z" fill="#FBCD76"/>
</svg>
