<svg width="20" height="20" viewBox="0 0 20 20" fill="none" xmlns="http://www.w3.org/2000/svg">
<path fill-rule="evenodd" clip-rule="evenodd" d="M10 8.125C10.663 8.125 11.2989 7.86161 11.7678 7.39277C12.2366 6.92393 12.5 6.28804 12.5 5.625C12.5 4.96196 12.2366 4.32607 11.7678 3.85723C11.2989 3.38839 10.663 3.125 10 3.125C9.33696 3.125 8.70107 3.38839 8.23223 3.85723C7.76339 4.32607 7.5 4.96196 7.5 5.625C7.5 6.28804 7.76339 6.92393 8.23223 7.39277C8.70107 7.86161 9.33696 8.125 10 8.125ZM10 10C11.1603 10 12.2731 9.53906 13.0936 8.71859C13.9141 7.89812 14.375 6.78532 14.375 5.625C14.375 4.46468 13.9141 3.35188 13.0936 2.53141C12.2731 1.71094 11.1603 1.25 10 1.25C8.83968 1.25 7.72688 1.71094 6.90641 2.53141C6.08594 3.35188 5.625 4.46468 5.625 5.625C5.625 6.78532 6.08594 7.89812 6.90641 8.71859C7.72688 9.53906 8.83968 10 10 10ZM11.25 11.5312C11.2535 11.3003 11.1668 11.0771 11.0083 10.909C10.8498 10.741 10.632 10.6413 10.4012 10.6313C10.2675 10.6272 10.1338 10.6251 10 10.625C5.1875 10.625 1.25 13.125 1.25 15.625C1.25 16.4538 1.57924 17.2487 2.16529 17.8347C2.75134 18.4208 3.5462 18.75 4.375 18.75H7.1875C7.43614 18.75 7.6746 18.6512 7.85041 18.4754C8.02623 18.2996 8.125 18.0611 8.125 17.8125C8.125 17.5639 8.02623 17.3254 7.85041 17.1496C7.6746 16.9738 7.43614 16.875 7.1875 16.875H4.375C4.04348 16.875 3.72554 16.7433 3.49112 16.5089C3.2567 16.2745 3.125 15.9565 3.125 15.625C3.125 15.37 3.4 14.6138 4.775 13.8013C6.0475 13.05 7.9 12.5 10 12.5C10.0725 12.5 10.1462 12.5 10.2188 12.5025C10.7712 12.5125 11.25 12.0838 11.25 11.5312ZM15.7375 11.915C16.28 12.0425 16.7075 12.47 16.8363 13.0125L13.3075 16.54C13.0209 16.8271 12.649 17.0135 12.2475 17.0712L11.585 17.165L11.6788 16.5025C11.7365 16.101 11.9229 15.7291 12.21 15.4425L15.7375 11.915ZM14.6337 17.865L18.4688 14.0312C18.558 13.9422 18.6287 13.8364 18.677 13.7199C18.7252 13.6034 18.75 13.4786 18.75 13.3525C18.7497 12.4635 18.3964 11.6109 17.7677 10.9823C17.1391 10.3536 16.2865 10.0003 15.3975 10C15.2715 9.99972 15.1467 10.0243 15.0302 10.0724C14.9137 10.1204 14.8079 10.191 14.7188 10.28L10.8837 14.1163C10.3103 14.6901 9.93833 15.4344 9.82375 16.2375L9.61125 17.725C9.58395 17.9169 9.60165 18.1125 9.66296 18.2964C9.72427 18.4803 9.82751 18.6474 9.96452 18.7845C10.1015 18.9217 10.2685 19.0251 10.4524 19.0865C10.6362 19.148 10.8318 19.1659 11.0238 19.1388L12.5125 18.9263C13.3156 18.8117 14.0599 18.4397 14.6337 17.8663V17.865Z" fill="#FAFAFA"/>
</svg>
