<svg width="24" height="24" viewBox="0 0 24 24" fill="none" xmlns="http://www.w3.org/2000/svg">
<path fill-rule="evenodd" clip-rule="evenodd" d="M18.482 19.79V19.788L18.5 19.745L21.499 4.625V4.577C21.499 4.2 21.359 3.871 21.057 3.674C20.792 3.501 20.487 3.489 20.273 3.505C20.0738 3.52301 19.8772 3.56326 19.687 3.625C19.6059 3.65115 19.5258 3.68051 19.447 3.713L19.434 3.718L2.71399 10.277L2.70899 10.279C2.65816 10.2964 2.60841 10.3167 2.55999 10.34C2.44108 10.3934 2.32699 10.457 2.21899 10.53C2.00399 10.678 1.59499 11.026 1.66399 11.578C1.72099 12.036 2.03599 12.326 2.24899 12.477C2.37472 12.5651 2.50989 12.6389 2.65199 12.697L2.68399 12.711L2.69399 12.714L2.70099 12.717L5.62699 13.702C5.61699 13.885 5.63499 14.072 5.68399 14.257L7.14899 19.816C7.22903 20.119 7.40196 20.3894 7.64352 20.589C7.88507 20.7887 8.18311 20.9078 8.49577 20.9294C8.80843 20.951 9.12002 20.8741 9.38676 20.7096C9.6535 20.5451 9.86201 20.3011 9.98299 20.012L12.271 17.566L16.2 20.578L16.256 20.602C16.613 20.758 16.946 20.807 17.251 20.766C17.556 20.724 17.798 20.596 17.98 20.451C18.1905 20.2803 18.3583 20.0629 18.47 19.816L18.478 19.799L18.481 19.793L18.482 19.79ZM7.13399 13.875C7.11777 13.8133 7.12163 13.7481 7.145 13.6887C7.16838 13.6294 7.21006 13.579 7.26399 13.545L17.185 7.245C17.185 7.245 17.769 6.89 17.748 7.245C17.748 7.245 17.852 7.307 17.539 7.598C17.243 7.875 10.468 14.416 9.78199 15.078C9.74385 15.115 9.71713 15.1622 9.70499 15.214L8.59899 19.434L7.13399 13.875Z" fill="#18A3E6"/>
</svg>
