<svg width="24" height="24" viewBox="0 0 24 24" fill="none" xmlns="http://www.w3.org/2000/svg">
<path fill-rule="evenodd" clip-rule="evenodd" d="M2.18412 21.5385C2.16647 21.4704 2.16709 21.3988 2.18594 21.331L3.41594 16.865C2.54394 15.358 2.08594 13.65 2.08594 11.911C2.08594 6.446 6.55794 2 12.0439 2C13.3516 1.99589 14.6472 2.25044 15.8561 2.749C17.065 3.24756 18.1633 3.98028 19.0879 4.905C20.0143 5.82199 20.749 6.9141 21.2493 8.11775C21.7496 9.32139 22.0054 10.6125 22.0019 11.916C22.0019 17.382 17.5299 21.828 12.0439 21.828H12.0399C10.3776 21.8276 8.74162 21.4127 7.27994 20.621L2.67294 21.825C2.60488 21.8429 2.53332 21.8425 2.46546 21.8239C2.39761 21.8052 2.33587 21.7691 2.28647 21.7189C2.23708 21.6688 2.20177 21.6066 2.18412 21.5385ZM9.46694 7.613C9.27394 7.185 9.07094 7.175 8.88794 7.17C8.73994 7.165 8.56594 7.165 8.39294 7.165C8.2626 7.16834 8.13434 7.19848 8.01615 7.25353C7.89795 7.30858 7.79236 7.38738 7.70594 7.485L7.65894 7.535C7.39194 7.817 6.80494 8.437 6.80494 9.627C6.80494 10.8686 7.70243 12.0713 7.85207 12.2718L7.85294 12.273L7.85894 12.281C7.87703 12.306 7.8947 12.3314 7.91194 12.357C8.23494 12.836 9.83594 15.202 12.2619 16.156C14.2257 16.9294 14.7796 16.8633 15.2151 16.8113L15.2179 16.811L15.3529 16.795C15.8279 16.751 16.8769 16.175 17.0949 15.575C17.3069 14.973 17.3069 14.462 17.2429 14.353C17.1909 14.267 17.0699 14.208 16.8909 14.123L16.7479 14.053C16.4909 13.926 15.2249 13.305 14.9869 13.216C14.7489 13.128 14.5769 13.088 14.4089 13.344C14.2349 13.6 13.7409 14.176 13.5919 14.349C13.4439 14.521 13.2909 14.541 13.0339 14.413C12.9909 14.392 12.9339 14.367 12.8639 14.337C12.1659 14.0483 11.5223 13.6424 10.9609 13.137C10.1939 12.458 9.67494 11.616 9.52594 11.36C9.37794 11.104 9.51094 10.966 9.63994 10.838C9.71194 10.766 9.79694 10.664 9.88194 10.56C9.92893 10.5028 9.9766 10.4461 10.0249 10.39C10.1201 10.2791 10.1976 10.1544 10.2549 10.02L10.2829 9.962C10.3669 9.789 10.3269 9.642 10.2629 9.514C10.2382 9.46452 10.1479 9.24479 10.0326 8.96455C10.0175 8.92767 10.0019 8.88973 9.98594 8.851C9.97366 8.82115 9.9612 8.79082 9.94858 8.76014C9.78037 8.35093 9.58601 7.87812 9.46694 7.613Z" fill="#25D366"/>
</svg>
