<svg width="19" height="18" viewBox="0 0 19 18" fill="none" xmlns="http://www.w3.org/2000/svg">
<path fill-rule="evenodd" clip-rule="evenodd" d="M0.859375 3.00006C0.859375 1.37634 2.17566 0.0600586 3.79938 0.0600586H12.7994C14.4231 0.0600586 15.7394 1.37634 15.7394 3.00006V4.06006H15.7994C17.4231 4.06006 18.7394 5.37634 18.7394 7.00006V15.0001C18.7394 16.6238 17.4231 17.9401 15.7994 17.9401H3.79938C2.17566 17.9401 0.859375 16.6238 0.859375 15.0001V3.00006ZM15.7394 5.94006V13.0001C15.7394 13.5192 15.3185 13.9401 14.7994 13.9401C14.2802 13.9401 13.8594 13.5192 13.8594 13.0001V3.00006C13.8594 2.41464 13.3848 1.94006 12.7994 1.94006H3.79938C3.21395 1.94006 2.73937 2.41464 2.73937 3.00006V15.0001C2.73937 15.5855 3.21395 16.0601 3.79938 16.0601H15.7994C16.3848 16.0601 16.8594 15.5855 16.8594 15.0001V7.00006C16.8594 6.41464 16.3848 5.94006 15.7994 5.94006H15.7394ZM4.70044 5.00006C4.70044 4.48091 5.12129 4.06006 5.64044 4.06006H8.29938C8.81852 4.06006 9.23938 4.48091 9.23938 5.00006C9.23938 5.51921 8.81852 5.94006 8.29938 5.94006H5.64044C5.12129 5.94006 4.70044 5.51921 4.70044 5.00006ZM4.70044 8.50006C4.70044 7.98091 5.12129 7.56006 5.64044 7.56006H10.7993C11.3185 7.56006 11.7393 7.98091 11.7393 8.50006C11.7393 9.01921 11.3185 9.44006 10.7993 9.44006H5.64044C5.12129 9.44006 4.70044 9.01921 4.70044 8.50006ZM4.70044 12.5001C4.70044 11.9809 5.12129 11.5601 5.64044 11.5601H10.7993C11.3185 11.5601 11.7393 11.9809 11.7393 12.5001C11.7393 13.0192 11.3185 13.4401 10.7993 13.4401H5.64044C5.12129 13.4401 4.70044 13.0192 4.70044 12.5001Z" fill="#C4CDCC"/>
</svg>
