<svg width="19" height="15" viewBox="0 0 19 15" fill="none" xmlns="http://www.w3.org/2000/svg">
<path fill-rule="evenodd" clip-rule="evenodd" d="M6.38867 5.75C6.83622 5.75 7.26545 5.57221 7.58191 5.25574C7.89838 4.93928 8.07617 4.51005 8.07617 4.0625C8.07617 3.61495 7.89838 3.18572 7.58191 2.86926C7.26545 2.55279 6.83622 2.375 6.38867 2.375C5.94112 2.375 5.5119 2.55279 5.19543 2.86926C4.87896 3.18572 4.70117 3.61495 4.70117 4.0625C4.70117 4.51005 4.87896 4.93928 5.19543 5.25574C5.5119 5.57221 5.94112 5.75 6.38867 5.75ZM6.38867 7.4375C7.28378 7.4375 8.14222 7.08192 8.77516 6.44899C9.40809 5.81605 9.76367 4.95761 9.76367 4.0625C9.76367 3.16739 9.40809 2.30895 8.77516 1.67601C8.14222 1.04308 7.28378 0.6875 6.38867 0.6875C5.49357 0.6875 4.63512 1.04308 4.00219 1.67601C3.36925 2.30895 3.01367 3.16739 3.01367 4.0625C3.01367 4.95761 3.36925 5.81605 4.00219 6.44899C4.63512 7.08192 5.49357 7.4375 6.38867 7.4375ZM2.98105 10.6842C2.10692 11.2917 1.88867 11.8801 1.88867 12.1535C1.88867 12.6553 2.29592 13.0625 2.79767 13.0625H9.97967C10.2208 13.0625 10.452 12.9667 10.6224 12.7963C10.7929 12.6258 10.8887 12.3946 10.8887 12.1535C10.8887 11.879 10.6704 11.2906 9.7963 10.6842C8.96717 10.1094 7.76005 9.6875 6.38867 9.6875C5.01842 9.6875 3.81017 10.1094 2.98105 10.6842ZM0.201172 12.1535C0.201172 10.0768 2.98555 8 6.38867 8C7.71617 8 8.95142 8.31613 9.9628 8.82575C10.9313 8.2783 12.0262 7.99363 13.1387 8C15.923 8 18.2012 9.73025 18.2012 11.4616C18.2012 12.0354 17.9732 12.5857 17.5675 12.9914C17.1618 13.3971 16.6116 13.625 16.0378 13.625H12.1194C11.6514 14.3045 10.8673 14.75 9.97967 14.75H2.79767C2.10904 14.75 1.44861 14.4764 0.961669 13.9895C0.474731 13.5026 0.201172 12.8421 0.201172 12.1535ZM12.566 11.9375H16.0378C16.301 11.9375 16.5137 11.7237 16.5137 11.4616C16.5137 11.3457 16.4057 10.9306 15.7397 10.4604C15.1164 10.0183 14.1928 9.6875 13.1387 9.6875C12.557 9.6875 12.0148 9.78875 11.5412 9.953C12.1329 10.5538 12.5019 11.2423 12.566 11.9375ZM14.2637 4.625C14.2637 4.92337 14.1451 5.20952 13.9342 5.4205C13.7232 5.63147 13.437 5.75 13.1387 5.75C12.8403 5.75 12.5542 5.63147 12.3432 5.4205C12.1322 5.20952 12.0137 4.92337 12.0137 4.625C12.0137 4.32663 12.1322 4.04048 12.3432 3.8295C12.5542 3.61853 12.8403 3.5 13.1387 3.5C13.437 3.5 13.7232 3.61853 13.9342 3.8295C14.1451 4.04048 14.2637 4.32663 14.2637 4.625ZM15.9512 4.625C15.9512 5.37092 15.6549 6.08629 15.1274 6.61374C14.6 7.14118 13.8846 7.4375 13.1387 7.4375C12.3928 7.4375 11.6774 7.14118 11.1499 6.61374C10.6225 6.08629 10.3262 5.37092 10.3262 4.625C10.3262 3.87908 10.6225 3.16371 11.1499 2.63626C11.6774 2.10882 12.3928 1.8125 13.1387 1.8125C13.8846 1.8125 14.6 2.10882 15.1274 2.63626C15.6549 3.16371 15.9512 3.87908 15.9512 4.625Z" fill="#C4CDCC"/>
</svg>
