<svg width="18" height="12" viewBox="0 0 18 12" fill="none" xmlns="http://www.w3.org/2000/svg">
<path fill-rule="evenodd" clip-rule="evenodd" d="M17.4367 6.00005C17.4367 6.24869 17.3379 6.48715 17.1621 6.66296C16.9863 6.83878 16.7478 6.93755 16.4992 6.93755H3.76168L7.16168 10.3376C7.25378 10.4234 7.32766 10.5269 7.3789 10.6419C7.43014 10.7569 7.45769 10.881 7.45992 11.0069C7.46214 11.1328 7.43898 11.2578 7.39183 11.3745C7.34468 11.4913 7.2745 11.5973 7.18547 11.6863C7.09645 11.7754 6.99041 11.8456 6.87367 11.8927C6.75694 11.9399 6.6319 11.963 6.50602 11.9608C6.38014 11.9586 6.256 11.931 6.141 11.8798C6.026 11.8285 5.9225 11.7547 5.83668 11.6626L0.836675 6.66255C0.661112 6.48677 0.5625 6.24849 0.5625 6.00005C0.5625 5.75161 0.661112 5.51333 0.836675 5.33755L5.83668 0.337552C6.01439 0.171952 6.24945 0.0817983 6.49233 0.0860836C6.73521 0.0903688 6.96694 0.188759 7.1387 0.360525C7.31047 0.532291 7.40886 0.764023 7.41314 1.0069C7.41743 1.24978 7.32728 1.48483 7.16168 1.66255L3.76168 5.06255H16.4992C16.7478 5.06255 16.9863 5.16132 17.1621 5.33714C17.3379 5.51295 17.4367 5.75141 17.4367 6.00005Z" fill="#FAFAFA"/>
</svg>
